<?xml version="1.0" encoding="utf-8"?>
<svg version="1.1" xmlns="http://www.w3.org/2000/svg" xmlns:xlink="http://www.w3.org/1999/xlink" x="0px" y="0px"
	 viewBox="0 0 50 50" xml:space="preserve">
<style type="text/css">
	.st0{fill:#FFFFFF;}
</style>
<g>
	<path class="st0" d="M4.48,46.97c1.2-2.08,2.36-4.08,3.51-6.07c2.49-4.31,4.97-8.63,7.49-12.92c0.32-0.54,0.21-0.81-0.16-1.27
		c-1.74-2.13-3.43-4.3-5.12-6.47C7.2,16.42,4.22,12.57,1.23,8.72c-0.11-0.14-0.21-0.3-0.37-0.51C1.08,8.2,1.21,8.18,1.34,8.18
		c4.34,0,8.67-0.03,13.01,0.01c3.3,0.03,6.17,1.29,8.74,3.3c0.42,0.33,0.82,0.68,1.25,1.03c0.47-0.66,0.89-1.31,1.36-1.91
		c2.23-2.85,5.03-4.84,8.62-5.6c0.75-0.16,1.52-0.27,2.29-0.27c3.99-0.03,7.98-0.01,11.97-0.01c0.09,0,0.18,0.01,0.37,0.03
		c-0.24,0.41-0.44,0.77-0.65,1.13c-2.03,3.46-4.1,6.91-6.09,10.4c-0.75,1.31-1.5,2.59-2.64,3.61c-4.51,4.07-11.7,3.28-15.18-1.69
		c-1.46-2.09-3.11-3.96-5.39-5.19c-1.64-0.88-3.39-1.33-5.25-1.32c-1.62,0.01-3.24,0-4.86,0c-0.2,0-0.41,0-0.76,0
		c0.18,0.27,0.26,0.43,0.37,0.57c0.85,1.1,1.71,2.18,2.54,3.29c0.25,0.33,0.53,0.45,0.93,0.45c1.83-0.01,3.66-0.01,5.49,0
		c1.11,0.01,1.96,0.69,2.22,1.74c0.03,0.14,0.03,0.29,0.04,0.51c-2.16,0-4.27,0-6.48,0c0.12,0.21,0.17,0.35,0.26,0.46
		c0.6,0.78,1.22,1.53,1.8,2.33c0.24,0.32,0.5,0.42,0.88,0.41c1.52-0.01,3.04-0.02,4.57,0c1.22,0.02,2.19,1.05,2.08,2.23
		c-0.88,0-1.76,0-2.64,0c-0.86,0-1.72,0-2.58,0c-0.03,0.05-0.06,0.1-0.09,0.15c0.25,0.27,0.48,0.56,0.75,0.82
		c2.41,2.36,5.32,3.52,8.68,3.59c1.39,0.03,2.78-0.01,4.16,0.02c1.78,0.03,2.91,1.87,2.03,3.41c-1.54,2.68-3.04,5.4-4.78,7.95
		c-2.46,3.62-5.82,6.11-10.18,7.06c-0.88,0.19-1.79,0.28-2.69,0.29C11.98,47.02,8.45,47,4.92,47C4.81,47,4.7,46.99,4.48,46.97z
		 M28.83,31.86c-0.05-0.04-0.08-0.08-0.11-0.08c-0.56-0.01-1.12-0.03-1.68-0.02c-2.8,0.05-5.41-0.65-7.84-1.99
		c-0.45-0.25-0.61-0.12-0.83,0.26c-2.44,4.25-4.9,8.49-7.34,12.73c-0.11,0.19-0.2,0.39-0.36,0.72c0.75,0,1.38,0.02,2,0
		c1.46-0.05,2.94,0.03,4.37-0.2c3.11-0.48,5.65-2.11,7.51-4.57c1.58-2.09,2.84-4.42,4.24-6.65C28.83,32,28.82,31.92,28.83,31.86z
		 M42.67,8.38c-0.26-0.02-0.42-0.04-0.59-0.04c-1.93,0-3.85-0.01-5.78,0.01c-0.49,0.01-1,0.08-1.48,0.2
		c-3.23,0.78-5.52,2.8-7.21,5.55c-1.03,1.68-1.11,1.06,0.19,2.66c2.74,3.35,8.31,2.84,10.5-0.9c1.28-2.19,2.57-4.37,3.85-6.56
		C42.33,9.01,42.48,8.73,42.67,8.38z"/>
</g>
</svg>
