<?xml version="1.0" encoding="utf-8"?>
<svg version="1.1" xmlns="http://www.w3.org/2000/svg" xmlns:xlink="http://www.w3.org/1999/xlink" x="0px" y="0px"
	 viewBox="0 0 1089 408" xml:space="preserve">
<style type="text/css">
	.st0{fill:#F06826;}
	.st1{fill:#3F3731;}
	.st2{fill:#403832;}
	.st3{fill:#3E3630;}
</style>
<g>
	<path class="st0" d="M7.36,52.5c3.41,0,5.21,0,7.01,0c32.63,0,65.28,0.76,97.88-0.2c38.59-1.14,71.34,11.64,99.7,37.95
		c2.66-3.91,5.11-7.74,7.79-11.42c20.08-27.61,45.83-46.93,79.9-53.8c5.03-1.01,10.22-1.68,15.33-1.71
		c35.79-0.14,71.59-0.08,107.38-0.07c0.8,0,1.6,0.12,3.1,0.24c-2.85,4.92-5.45,9.47-8.11,14c-16.88,28.79-34.16,57.36-50.5,86.46
		c-7.75,13.81-16.2,26.62-29.04,36.19c-40.43,30.12-97.9,20.73-126.46-20.76c-12.99-18.88-28.16-35.29-49.18-45.54
		c-11.84-5.77-24.25-9.22-37.39-9.41c-16.95-0.25-33.91-0.06-51.45-0.06c0.7,1.26,1.11,2.25,1.74,3.07
		c7.62,9.87,15.16,19.8,23.02,29.47c1.32,1.62,4.04,2.93,6.13,2.96c15.98,0.24,31.96,0.04,47.94,0.17
		c11.87,0.1,19.93,8.01,20.57,20.51c-18.33,0-36.64,0-56.45,0c5.55,7.14,10.66,12.8,14.69,19.15c3.84,6.04,8.5,8.05,15.56,7.67
		c11.29-0.61,22.63-0.29,33.95-0.13c11.12,0.16,19.69,9.03,19.77,20.69c-15.18,0-30.36,0-45.55,0c-0.2,0.38-0.4,0.76-0.61,1.14
		c3.8,3.78,7.37,7.82,11.44,11.28c19.6,16.65,42.25,25.38,68.08,25.54c11.32,0.07,22.64-0.07,33.96,0.03
		c20.09,0.18,29.52,16.75,19.34,33.97c-12.33,20.87-24,42.19-37.31,62.42c-20.07,30.51-47.19,52.71-82.96,62.55
		c-10.45,2.87-21.6,4.24-32.46,4.44c-31.28,0.58-62.58,0.2-94.83,0.2c33.03-57.24,65.75-113.94,97.99-169.81
		C94.03,163.99,51.13,108.81,7.36,52.5z M251.19,257.55c-31.66,2.1-60.8-3.09-87.65-19.22c-23.02,39.88-45.71,79.19-68.6,118.85
		c16.8,0,32.95,1.19,48.86-0.26c28.1-2.57,50.04-17.46,68.46-38.03c12.87-14.37,21.24-31.67,31.13-47.97
		C245.86,266.86,248.18,262.72,251.19,257.55z M369.93,55.1c-18.47,0-35.92-0.12-53.37,0.08c-4.61,0.05-9.31,0.7-13.79,1.78
		c-28.06,6.81-47.58,24.74-62.45,48.51c-6.63,10.6-6.53,10.66,1.21,20.51c22.87,29.06,71.74,25.8,90.41-6.04
		c4.62-7.88,9.25-15.74,13.87-23.62C353.68,82.88,361.54,69.45,369.93,55.1z"/>
	<path class="st1" d="M1034.14,256.3c4.91,2.03,9.8,3.65,14.31,6c20.29,10.56,31.09,33.19,27.75,57.64
		c-3.98,29.16-21.12,47.02-52.29,53.5c-9.05,1.88-18.43,2.73-27.69,3c-16.12,0.47-32.27,0.13-48.71,0.13c0-8.97,0-17.69,0-26.94
		c7.86,0,15.64,0.22,23.4-0.05c13.94-0.48,28.01-0.26,41.76-2.16c15.16-2.1,27.61-9.53,31.29-25.86
		c3.16-14.02,2.01-27.56-9.12-38.34c-6.39-6.19-14.74-8.58-23.19-9.27c-14.23-1.16-28.54-1.51-42.82-1.89
		c-10.28-0.28-20.58-0.05-31.36-0.05c0,34.89,0,69.37,0,104.21c-10.34,0-20.19,0-30.29,0c0-75.12,0-150.17,0-225.63
		c1.48-0.1,2.91-0.29,4.35-0.29c26.47-0.02,52.94-0.24,79.4,0.07c16.94,0.19,33.26,3.27,48.41,11.68
		c34.04,18.91,35.66,70.5,1.23,90.47C1038.43,253.74,1036.31,255.01,1034.14,256.3z M937.43,245.05c9.52,0,18.49,0.15,27.45-0.03
		c13.28-0.27,26.63-0.04,39.81-1.34c18.37-1.81,27.72-10.25,30.54-25.52c3.48-18.88-5.27-33.2-23.44-37.89
		c-4.48-1.15-9.15-2.05-13.75-2.14c-19.44-0.39-38.89-0.43-58.33-0.56c-0.76-0.01-1.52,0.35-2.29,0.53
		C937.43,200.38,937.43,222.42,937.43,245.05z"/>
	<path class="st2" d="M691.47,150.84c0.48-0.22,0.77-0.47,1.06-0.46c32.76,0.57,65.63-0.19,98.26,2.17
		c27.35,1.98,51.41,13.28,68.28,36.34c10.77,14.72,15.94,31.6,18.19,49.46c2.99,23.81,2.26,47.48-4.63,70.59
		c-11.05,37.07-37.03,57.58-74.3,64.48c-10.73,1.99-21.79,2.8-32.72,3.01c-22.8,0.45-45.62,0.14-68.43,0.14c-1.81,0-3.62,0-5.74,0
		c0-9,0-17.71,0-26.95c1.87,0,3.65,0,5.43,0c24.81-0.06,49.63,0.31,74.42-0.38c9.86-0.27,19.82-2.24,29.46-4.56
		c18.01-4.34,30.89-15.55,37.67-32.67c12.54-31.68,12.87-63.88,1.06-95.82c-7.97-21.54-24.94-32.9-47.02-35.95
		c-14.43-1.99-29.15-2.02-43.75-2.6c-8.79-0.35-17.61-0.06-27.03-0.06c0,55.04,0,109.79,0,164.8c-10.36,0-20.11,0-30.2,0
		C691.47,278.65,691.47,214.89,691.47,150.84z"/>
	<path class="st3" d="M394.05,150.27c11.64,0,22.46-0.18,33.26,0.17c1.95,0.06,4.5,1.86,5.63,3.59
		c19.58,29.85,38.98,59.82,58.43,89.76c2.08,3.2,4.19,6.37,6.74,10.24c1.13-1.62,2.06-2.86,2.9-4.16
		c20.66-31.92,41.35-63.82,61.89-95.82c1.84-2.87,3.78-3.93,7.16-3.86c10.32,0.22,20.64,0.08,31.88,0.08
		c-1.04,1.74-1.75,3.07-2.59,4.31c-27.99,41.02-56.01,82.02-83.9,123.11c-1.37,2.02-2.2,4.84-2.22,7.29
		c-0.15,28.59-0.1,57.18-0.1,85.78c0,1.79,0,3.58,0,5.57c-10.14,0-19.88,0-30.14,0c0-1.9,0-3.67,0-5.44
		c0-28.43,0.07-56.85-0.11-85.28c-0.02-2.75-0.99-5.9-2.53-8.18c-27.87-41.1-55.9-82.1-83.88-123.12
		C395.74,153.25,395.14,152.1,394.05,150.27z"/>
	<path class="st3" d="M620.14,197.61c10.05,0,19.69,0,29.68,0c0,59.48,0,118.87,0,178.6c-9.65,0-19.53,0-29.68,0
		C620.14,316.85,620.14,257.48,620.14,197.61z"/>
	<path class="st0" d="M541.3,150.65c-14.57,22.53-28.8,44.51-43.52,67.27c-14.73-22.65-29.06-44.68-43.75-67.27
		C483.26,150.65,511.87,150.65,541.3,150.65z"/>
	<path class="st0" d="M619.76,150.42c10.12,0,19.72,0,29.7,0c0,9.98,0,19.82,0,30.07c-9.73,0-19.56,0-29.7,0
		C619.76,170.58,619.76,160.73,619.76,150.42z"/>
</g>
</svg>
